<?xml version="1.0" encoding="utf-8"?>
<!-- Generator: Adobe Illustrator 15.0.0, SVG Export Plug-In  -->
<!DOCTYPE svg PUBLIC "-//W3C//DTD SVG 1.1//EN" "http://www.w3.org/Graphics/SVG/1.1/DTD/svg11.dtd" [
	<!ENTITY ns_flows "http://ns.adobe.com/Flows/1.0/">
]>
<svg version="1.1"
	 xmlns="http://www.w3.org/2000/svg" xmlns:xlink="http://www.w3.org/1999/xlink" xmlns:a="http://ns.adobe.com/AdobeSVGViewerExtensions/3.0/"
	 x="0px" y="0px" width="286px" height="231px" viewBox="0 0 286 231" overflow="visible" enable-background="new 0 0 286 231"
	 xml:space="preserve">
<defs>
</defs>
<polygon fill="#475C7A" stroke="#FFFFFF" stroke-miterlimit="10" points="137.512,14.172 143.987,9.254 152.965,22.194 
	151.897,30.574 222.963,31.384 285.352,103.965 259.432,120.047 250.137,145.741 238.842,160.504 225.723,165.967 180.717,197.858 
	173.426,208.428 145.364,230.112 132.424,223.915 131.694,209.887 122.948,192.389 114.02,187.655 108.92,159.774 92.333,147.563 
	81.401,125.331 46.596,92.894 28.737,53.716 19.807,53.354 0.672,35.312 15.981,15.449 58.526,0.506 137.512,5.972 "/>
<g>
	<polygon fill="#FFFFFF" points="125.031,108.309 123.199,96.336 121.758,106.095 107.2,107.746 106.833,88.248 109.85,83.897 
		101.868,84.069 105.932,94.579 101.603,107.729 88.565,105.788 86.353,98.017 86.372,108.309 72.908,108.309 68.743,91.66 
		71.591,73.131 64.5,71.898 56.788,94.307 59.033,97.275 62.423,89.583 66.711,101.119 62.848,105.277 54.013,106.822 
		44.762,96.044 45.757,74.177 41.343,66.329 38.812,39.004 51.946,23.036 75.267,20.826 87.667,43.42 75.099,60.369 72.938,59.754 
		74.831,62.978 90.552,43.206 80.061,25.241 113.791,23.532 138.805,41.306 147.258,70.726 137.64,68.024 141.069,108.309 	"/>
	<path fill="#475C7A" d="M74.707,21.883l11.775,21.456L74.707,59.218l-3.894-1.107l3.894,6.63L91.76,43.293L81.753,26.156
		l31.741-1.608l24.446,17.37l7.85,27.32l-9.273-2.598l3.462,40.668h-14.093l-2.72-17.676l-2.288,15.558l-12.701,1.434l-0.341-18.072
		l3.955-5.699l-11.372,0.248l4.449,11.503l-3.954,12.011l-11.561-1.722l-4.017-14.27l0.031,16.685H73.687l-3.924-15.697
		l2.967-19.305l-8.901-1.534l-8.16,23.711l3.59,4.755l3.084-6.999l3.215,8.649l-3.215,3.46l-7.943,1.39l-8.622-10.045l0.99-21.757
		l-4.45-7.913l-2.474-26.702l12.609-15.329L74.707,21.883 M75.828,19.768l-1.31,0.124l-22.253,2.109l-0.828,0.079l-0.528,0.642
		L38.301,38.051l-0.523,0.636l0.076,0.819l2.474,26.702l0.04,0.424l0.209,0.372l4.169,7.414l-0.964,21.185l-0.036,0.792l0.517,0.602
		l8.622,10.045l0.741,0.864l1.121-0.196l7.943-1.39l0.663-0.116l0.458-0.493l3.215-3.462l0.838-0.903l-0.429-1.155l-3.215-8.652
		l-1.716-4.619l-1.989,4.508l-1.708,3.873l-0.9-1.195l7.264-21.131l5.282,0.88l-2.666,17.25l-0.062,0.402l0.1,0.395l3.924,15.697
		l0.382,1.712h1.557H85.37h2.004l-0.004-2.207l-0.003-1.795l0.062,0.172l0.348,1.227l1.285,0.179l11.561,1.715l1.667,0.245
		l0.527-1.603l3.192-9.698l0.171,9.068l0.042,2.205l2.19-0.256l12.701-1.484l1.525-0.178l0.222-1.519l0.371-2.542l0.681,4.577
		l0.263,1.896h1.713h14.093h2.178l-0.186-2.374l-3.211-37.629l6.451,1.897l3.515,1.036l-1.015-3.541l-7.85-27.326l-0.193-0.676
		l-0.57-0.407l-24.447-17.371l-0.566-0.403l-0.693,0.035l-31.741,1.608l-3.284,0.167l1.658,2.839l9.316,15.955L86.258,47
		l1.831-2.469l0.764-1.03l-0.617-1.124L76.46,20.921L75.828,19.768L75.828,19.768z M103.314,85.031l4.591-0.103l-1.709,2.457
		l-0.37,0.532l0.012,0.647l0.06,3.149L103.314,85.031L103.314,85.031z"/>
</g>
</svg>
